<svg width="109" height="29" viewBox="0 0 109 29" fill="none" xmlns="http://www.w3.org/2000/svg">
<path d="M48.6389 15.5125L46.8989 10.8195C46.8289 10.6275 46.5559 10.6275 46.4849 10.8195L44.7449 15.5125C44.7325 15.5459 44.7283 15.5818 44.7327 15.6171C44.7372 15.6524 44.7502 15.6861 44.7705 15.7153C44.7909 15.7445 44.818 15.7684 44.8496 15.7848C44.8812 15.8012 44.9163 15.8097 44.9519 15.8095H48.4319C48.4675 15.8097 48.5026 15.8012 48.5342 15.7848C48.5658 15.7684 48.593 15.7445 48.6133 15.7153C48.6337 15.6861 48.6466 15.6524 48.6511 15.6171C48.6556 15.5818 48.6514 15.5459 48.6389 15.5125V15.5125ZM49.4429 18.1495H43.9509C43.9058 18.1494 43.8618 18.1632 43.8247 18.1889C43.7877 18.2147 43.7595 18.2512 43.7439 18.2935L42.6609 21.2135C42.6453 21.2559 42.6171 21.2924 42.5801 21.3181C42.5431 21.3439 42.499 21.3577 42.4539 21.3575H40.0689C40.0327 21.3577 39.9971 21.349 39.9651 21.3322C39.9331 21.3153 39.9057 21.2908 39.8854 21.2608C39.8652 21.2309 39.8526 21.1964 39.8488 21.1604C39.8451 21.1244 39.8503 21.088 39.8639 21.0545L45.3639 7.37454C45.3803 7.33366 45.4087 7.29864 45.4452 7.27404C45.4818 7.24943 45.5249 7.23637 45.5689 7.23654H47.8529C47.897 7.23637 47.9401 7.24943 47.9766 7.27404C48.0132 7.29864 48.0415 7.33366 48.0579 7.37454L53.5579 21.0545C53.5716 21.088 53.5767 21.1244 53.573 21.1604C53.5692 21.1964 53.5567 21.2309 53.5364 21.2608C53.5161 21.2908 53.4888 21.3153 53.4568 21.3322C53.4248 21.349 53.3891 21.3577 53.3529 21.3575H50.9509C50.9058 21.3577 50.8618 21.3439 50.8247 21.3181C50.7877 21.2924 50.7595 21.2559 50.7439 21.2135L49.6609 18.2935C49.6453 18.2512 49.6171 18.2147 49.5801 18.1889C49.5431 18.1632 49.499 18.1494 49.4539 18.1495H49.4429ZM54.6579 12.0375H56.6979C56.727 12.0374 56.7558 12.043 56.7826 12.0541C56.8095 12.0652 56.8339 12.0814 56.8545 12.102C56.875 12.1225 56.8913 12.1469 56.9024 12.1738C56.9134 12.2007 56.919 12.2295 56.9189 12.2585V21.1385C56.919 21.1676 56.9134 21.1964 56.9024 21.2233C56.8913 21.2501 56.875 21.2746 56.8545 21.2951C56.8339 21.3157 56.8095 21.3319 56.7826 21.343C56.7558 21.354 56.727 21.3597 56.6979 21.3595H54.6579C54.6289 21.3597 54.6001 21.354 54.5732 21.343C54.5463 21.3319 54.5219 21.3157 54.5013 21.2951C54.4808 21.2746 54.4645 21.2501 54.4535 21.2233C54.4424 21.1964 54.4368 21.1676 54.4369 21.1385V12.2385C54.4368 12.2095 54.4424 12.1807 54.4535 12.1538C54.4645 12.1269 54.4808 12.1025 54.5013 12.082C54.5219 12.0614 54.5463 12.0452 54.5732 12.0341C54.6001 12.023 54.6289 12.0174 54.6579 12.0175V12.0375ZM64.3579 14.1775C64.358 14.2066 64.3524 14.2354 64.3414 14.2623C64.3303 14.2891 64.314 14.3136 64.2935 14.3341C64.2729 14.3547 64.2485 14.3709 64.2216 14.382C64.1948 14.393 64.166 14.3987 64.1369 14.3985H64.0749C63.0749 14.3985 62.3249 14.6405 61.8549 15.1245C61.3849 15.6085 61.1489 16.4085 61.1489 17.5245V21.1165C61.149 21.1456 61.1434 21.1744 61.1324 21.2013C61.1213 21.2281 61.105 21.2526 61.0845 21.2731C61.0639 21.2937 61.0395 21.3099 61.0126 21.321C60.9858 21.332 60.957 21.3377 60.9279 21.3375H58.9079C58.8789 21.3377 58.8501 21.332 58.8232 21.321C58.7963 21.3099 58.7719 21.2937 58.7513 21.2731C58.7308 21.2526 58.7145 21.2281 58.7035 21.2013C58.6924 21.1744 58.6868 21.1456 58.6869 21.1165V12.2485C58.6868 12.2195 58.6924 12.1907 58.7035 12.1638C58.7145 12.1369 58.7308 12.1125 58.7513 12.092C58.7719 12.0714 58.7963 12.0552 58.8232 12.0441C58.8501 12.033 58.8789 12.0274 58.9079 12.0275H60.9079C60.937 12.0274 60.9658 12.033 60.9926 12.0441C61.0195 12.0552 61.0439 12.0714 61.0645 12.092C61.085 12.1125 61.1013 12.1369 61.1124 12.1638C61.1234 12.1907 61.129 12.2195 61.1289 12.2485V14.0045H61.1689C61.4109 13.2785 61.7939 12.7205 62.3189 12.3305C62.8439 11.9405 63.4889 11.7455 64.2549 11.7455H64.3549L64.3579 14.1775ZM69.9359 14.0955C69.9069 14.0954 69.8781 14.101 69.8512 14.1121C69.8243 14.1232 69.7999 14.1394 69.7793 14.16C69.7588 14.1805 69.7425 14.2049 69.7315 14.2318C69.7204 14.2587 69.7148 14.2875 69.7149 14.3165V18.0095C69.7149 18.3865 69.7889 18.6545 69.9369 18.8165C70.0849 18.9785 70.3399 19.0585 70.7029 19.0585H70.9059C70.935 19.0584 70.9638 19.064 70.9906 19.0751C71.0175 19.0862 71.0419 19.1024 71.0625 19.123C71.083 19.1435 71.0993 19.1679 71.1104 19.1948C71.1214 19.2217 71.127 19.2505 71.1269 19.2795V21.1485C71.127 21.1776 71.1214 21.2064 71.1104 21.2333C71.0993 21.2601 71.083 21.2846 71.0625 21.3051C71.0419 21.3257 71.0175 21.3419 70.9906 21.353C70.9638 21.364 70.935 21.3697 70.9059 21.3695H70.0359C69.1359 21.3695 68.4419 21.1375 67.9579 20.6735C67.4739 20.2095 67.2319 19.5205 67.2319 18.6055V14.3275C67.232 14.2985 67.2264 14.2697 67.2154 14.2428C67.2043 14.2159 67.188 14.1915 67.1675 14.171C67.1469 14.1504 67.1225 14.1342 67.0956 14.1231C67.0688 14.112 67.04 14.1064 67.0109 14.1065H65.7379C65.7089 14.1067 65.6801 14.101 65.6532 14.09C65.6263 14.0789 65.6019 14.0627 65.5814 14.0421C65.5608 14.0216 65.5445 13.9971 65.5335 13.9703C65.5224 13.9434 65.5168 13.9146 65.5169 13.8855V12.2485C65.5168 12.2195 65.5224 12.1907 65.5335 12.1638C65.5445 12.1369 65.5608 12.1125 65.5814 12.092C65.6019 12.0714 65.6263 12.0552 65.6532 12.0441C65.6801 12.033 65.7089 12.0274 65.7379 12.0275H67.0109C67.04 12.0277 67.0688 12.022 67.0956 12.011C67.1225 11.9999 67.1469 11.9837 67.1675 11.9631C67.188 11.9426 67.2043 11.9181 67.2154 11.8913C67.2264 11.8644 67.232 11.8356 67.2319 11.8065V8.50654C67.2318 8.47748 67.2374 8.44869 67.2485 8.42181C67.2595 8.39494 67.2758 8.37052 67.2963 8.34998C67.3169 8.32943 67.3413 8.31316 67.3682 8.3021C67.3951 8.29104 67.4239 8.28541 67.4529 8.28554H69.4929C69.522 8.28541 69.5508 8.29104 69.5776 8.3021C69.6045 8.31316 69.6289 8.32943 69.6495 8.34998C69.67 8.37052 69.6863 8.39494 69.6974 8.42181C69.7084 8.44869 69.714 8.47748 69.7139 8.50654V11.8065C69.7138 11.8356 69.7194 11.8644 69.7305 11.8913C69.7415 11.9181 69.7578 11.9426 69.7783 11.9631C69.7989 11.9837 69.8233 11.9999 69.8502 12.011C69.8771 12.022 69.9059 12.0277 69.9349 12.0275H71.4099C71.439 12.0274 71.4678 12.033 71.4946 12.0441C71.5215 12.0552 71.5459 12.0714 71.5665 12.092C71.587 12.1125 71.6033 12.1369 71.6144 12.1638C71.6254 12.1907 71.631 12.2195 71.6309 12.2485V13.8855C71.631 13.9146 71.6254 13.9434 71.6144 13.9703C71.6033 13.9971 71.587 14.0216 71.5665 14.0421C71.5459 14.0627 71.5215 14.0789 71.4946 14.09C71.4678 14.101 71.439 14.1067 71.4099 14.1065L69.9359 14.0955ZM79.2759 18.5735C79.7399 18.0895 79.9719 17.4575 79.9719 16.6775C79.9719 15.8975 79.7399 15.2655 79.2759 14.7815C78.8119 14.2975 78.2029 14.0555 77.4499 14.0555C76.6969 14.0555 76.0899 14.2975 75.6239 14.7815C75.1579 15.2655 74.9279 15.8975 74.9279 16.6775C74.9279 17.4575 75.1599 18.0895 75.6239 18.5735C76.0879 19.0575 76.6959 19.2995 77.4499 19.2995C78.2039 19.2995 78.8119 19.0575 79.2759 18.5735ZM74.5759 21.0535C73.881 20.6544 73.3168 20.0621 72.9519 19.3485C72.5549 18.6025 72.3569 17.7115 72.3569 16.6755C72.3569 15.6395 72.5549 14.7495 72.9519 14.0025C73.3489 13.2555 73.8899 12.6885 74.5759 12.2975C75.2642 11.9069 76.0435 11.705 76.8349 11.7125C77.5609 11.7125 78.1829 11.8525 78.7009 12.1365C79.2189 12.4205 79.6309 12.8165 79.9409 13.3365H79.9809V12.2485C79.9808 12.2195 79.9864 12.1907 79.9975 12.1638C80.0085 12.1369 80.0248 12.1125 80.0453 12.092C80.0659 12.0714 80.0903 12.0552 80.1172 12.0441C80.1441 12.033 80.1729 12.0274 80.2019 12.0275H82.2219C82.251 12.0274 82.2798 12.033 82.3066 12.0441C82.3335 12.0552 82.3579 12.0714 82.3785 12.092C82.399 12.1125 82.4153 12.1369 82.4264 12.1638C82.4374 12.1907 82.443 12.2195 82.4429 12.2485V21.1285C82.443 21.1576 82.4374 21.1864 82.4264 21.2133C82.4153 21.2401 82.399 21.2646 82.3785 21.2851C82.3579 21.3057 82.3335 21.3219 82.3066 21.333C82.2798 21.344 82.251 21.3497 82.2219 21.3495H80.2019C80.1729 21.3497 80.1441 21.344 80.1172 21.333C80.0903 21.3219 80.0659 21.3057 80.0453 21.2851C80.0248 21.2646 80.0085 21.2401 79.9975 21.2133C79.9864 21.1864 79.9808 21.1576 79.9809 21.1285V20.0285H79.9409C79.6409 20.5285 79.2179 20.9365 78.7009 21.2285C78.1839 21.5205 77.5609 21.6525 76.8349 21.6525C76.0149 21.6525 75.2619 21.4575 74.5749 21.0675L74.5759 21.0535ZM90.8429 18.5875C91.3069 18.1035 91.5389 17.4715 91.5389 16.6915C91.5389 15.9115 91.3069 15.2795 90.8429 14.7955C90.3789 14.3115 89.7699 14.0695 89.0169 14.0695C88.2639 14.0695 87.6549 14.3115 87.1909 14.7955C86.7269 15.2795 86.4949 15.9115 86.4949 16.6915C86.4949 17.4715 86.7269 18.1035 87.1909 18.5875C87.6549 19.0715 88.2629 19.3135 89.0169 19.3135C89.7709 19.3135 90.3789 19.0715 90.8429 18.5875ZM87.7769 21.2305C87.2636 20.9529 86.8349 20.5417 86.5359 20.0405H86.4959V21.1405C86.4961 21.1696 86.4904 21.1984 86.4794 21.2253C86.4683 21.2521 86.452 21.2766 86.4315 21.2971C86.4109 21.3177 86.3865 21.3339 86.3596 21.345C86.3328 21.356 86.304 21.3617 86.2749 21.3615H84.2349C84.2059 21.3617 84.1771 21.356 84.1502 21.345C84.1233 21.3339 84.0989 21.3177 84.0783 21.2971C84.0578 21.2766 84.0415 21.2521 84.0305 21.2253C84.0194 21.1984 84.0138 21.1696 84.0139 21.1405V7.44854C84.0138 7.41948 84.0194 7.39068 84.0305 7.36381C84.0415 7.33694 84.0578 7.31252 84.0783 7.29198C84.0989 7.27143 84.1233 7.25515 84.1502 7.2441C84.1771 7.23304 84.2059 7.22741 84.2349 7.22754H86.2749C86.304 7.22741 86.3328 7.23304 86.3596 7.2441C86.3865 7.25515 86.4109 7.27143 86.4315 7.29198C86.452 7.31252 86.4683 7.33694 86.4794 7.36381C86.4904 7.39068 86.4961 7.41948 86.4959 7.44854V13.3485H86.5359C86.8349 12.8474 87.2636 12.4362 87.7769 12.1585C88.2949 11.8755 88.9169 11.7345 89.6429 11.7345C90.4343 11.727 91.2136 11.9289 91.9019 12.3195C92.5879 12.7195 93.1289 13.2775 93.5259 14.0245C93.9229 14.7715 94.1209 15.6625 94.1209 16.6975C94.1209 17.7325 93.9209 18.6245 93.5259 19.3705C93.1309 20.1165 92.5879 20.6855 91.9019 21.0755C91.2159 21.4655 90.4619 21.6605 89.6419 21.6605C88.9159 21.6605 88.2939 21.5205 87.7759 21.2365L87.7769 21.2305ZM97.5559 21.3565H95.5159C95.4869 21.3567 95.4581 21.351 95.4312 21.34C95.4043 21.3289 95.3799 21.3127 95.3594 21.2921C95.3388 21.2716 95.3225 21.2471 95.3115 21.2203C95.3004 21.1934 95.2948 21.1646 95.2949 21.1355V7.44854C95.2948 7.41948 95.3004 7.39068 95.3115 7.36381C95.3225 7.33694 95.3388 7.31252 95.3594 7.29198C95.3799 7.27143 95.4043 7.25515 95.4312 7.2441C95.4581 7.23304 95.4869 7.22741 95.5159 7.22754H97.5559C97.585 7.22741 97.6138 7.23304 97.6406 7.2441C97.6675 7.25515 97.6919 7.27143 97.7125 7.29198C97.733 7.31252 97.7493 7.33694 97.7604 7.36381C97.7714 7.39068 97.777 7.41948 97.7769 7.44854V21.1485C97.777 21.1776 97.7714 21.2064 97.7604 21.2333C97.7493 21.2601 97.733 21.2846 97.7125 21.3051C97.6919 21.3257 97.6675 21.3419 97.6406 21.353C97.6138 21.364 97.585 21.3697 97.5559 21.3695V21.3565ZM102.368 14.2095C102.03 14.4735 101.801 14.8545 101.683 15.3525C101.651 15.4895 101.758 15.6225 101.899 15.6225H105.781C105.916 15.6225 106.021 15.5025 106.001 15.3685C105.923 14.8985 105.721 14.5215 105.395 14.2405C105.012 13.9105 104.511 13.7465 103.892 13.7465C103.273 13.7465 102.766 13.9015 102.369 14.2105L102.368 14.2095ZM107.342 13.0505C108.135 13.9185 108.542 15.1455 108.542 16.7305V16.9945C108.542 17.0236 108.536 17.0524 108.525 17.0793C108.514 17.1061 108.498 17.1306 108.477 17.1511C108.457 17.1717 108.433 17.1879 108.406 17.199C108.379 17.21 108.35 17.2157 108.321 17.2155H101.835C101.698 17.2155 101.593 17.3405 101.617 17.4755C101.721 18.0755 101.981 18.5335 102.399 18.8805C102.876 19.2775 103.479 19.4755 104.204 19.4755C105.142 19.4755 106.009 19.1095 106.807 18.3775C106.83 18.3566 106.858 18.3409 106.887 18.3314C106.917 18.3219 106.948 18.3188 106.979 18.3224C107.011 18.326 107.04 18.3362 107.067 18.3523C107.094 18.3683 107.117 18.3899 107.135 18.4155L108.127 19.8395C108.158 19.8838 108.172 19.9382 108.166 19.9921C108.16 20.046 108.134 20.0956 108.093 20.1315C107.606 20.5581 107.065 20.9179 106.483 21.2015C105.838 21.5175 105.078 21.6755 104.203 21.6755C103.203 21.6755 102.303 21.4705 101.56 21.0605C100.82 20.6638 100.21 20.0612 99.8049 19.3255C99.3879 18.5795 99.1799 17.7255 99.1799 16.7335C99.1799 15.7415 99.3819 14.8835 99.7849 14.1315C100.188 13.3795 100.753 12.7935 101.48 12.3765C102.207 11.9595 103.053 11.7515 104.022 11.7515C105.447 11.7515 106.557 12.1855 107.35 13.0515L107.342 13.0505ZM57.1999 8.77154C57.1991 9.17098 57.0401 9.55383 56.7576 9.83628C56.4752 10.1187 56.0924 10.2777 55.6929 10.2785C55.2935 10.2777 54.9106 10.1187 54.6282 9.83628C54.3457 9.55383 54.1867 9.17098 54.1859 8.77154C54.1867 8.3721 54.3457 7.98925 54.6282 7.70681C54.9106 7.42436 55.2935 7.26533 55.6929 7.26454C56.0924 7.26533 56.4752 7.42436 56.7576 7.70681C57.0401 7.98925 57.1991 8.3721 57.1999 8.77154" fill="#333333"/>
<path d="M15.4115 0.3646L2.53346 5.6946C1.81746 5.9906 1.83346 7.0086 2.54546 7.2946L15.4775 12.4226C16.6138 12.8731 17.8791 12.8731 19.0155 12.4226L31.9475 7.2946C32.6675 7.0086 32.6755 5.9916 31.9595 5.6946L19.0815 0.3646C17.9064 -0.121533 16.5865 -0.121533 15.4115 0.3646" fill="#FFCC00"/>
<path d="M18.3945 15.2216V28.0216C18.3945 28.6216 19.0085 29.0486 19.5745 28.8236L33.9745 23.2306C34.1355 23.1672 34.2736 23.0568 34.3708 22.9137C34.4681 22.7706 34.5199 22.6016 34.5195 22.4286V9.62859C34.5195 9.02859 33.9055 8.60159 33.3395 8.82659L18.9395 14.4196C18.7786 14.4829 18.6405 14.5934 18.5432 14.7365C18.446 14.8795 18.3942 15.0486 18.3945 15.2216Z" fill="#31C2F2"/>
<path d="M15.031 15.8826L10.331 18.1576L1.303 22.4836C0.731 22.7596 0 22.3436 0 21.7066V9.68258C0 9.45258 0.118 9.25258 0.276 9.10458C0.340665 9.04001 0.414043 8.98481 0.494 8.94058C0.612179 8.87295 0.743895 8.83241 0.879644 8.82186C1.01539 8.81131 1.15179 8.83102 1.279 8.87958L14.979 14.3036C15.675 14.5796 15.729 15.5536 15.051 15.8836" fill="#ED3049"/>
<path d="M15.0309 15.8826L10.7529 17.9486L0.25293 9.10458C0.317595 9.04001 0.390972 8.98481 0.47093 8.94058C0.589109 8.87295 0.720825 8.83241 0.856575 8.82186C0.992324 8.81131 1.12872 8.83102 1.25593 8.87958L14.9559 14.3036C15.6519 14.5796 15.7059 15.5536 15.0279 15.8836" fill="#C62842"/>
</svg>
