<svg width="103" height="28" viewBox="0 0 103 28" fill="none" xmlns="http://www.w3.org/2000/svg">
<g clip-path="url(#clip0_9_18)">
<path d="M-0.02 27L9.185 1.45H14.995L24.48 27H20.945L12.37 3.69L14.05 4.53H9.92L11.705 3.69L3.41 27H-0.02ZM5.475 19.37L6.63 16.29H17.655L18.81 19.37H5.475ZM31.8951 18.11V15.1H37.6001C38.8134 15.1 39.8167 14.8667 40.6101 14.4C41.4034 13.91 41.9984 13.2567 42.3951 12.44C42.8151 11.6233 43.0251 10.7133 43.0251 9.71C43.0251 8.68333 42.8151 7.76167 42.3951 6.945C41.9984 6.12833 41.4034 5.48667 40.6101 5.02C39.8167 4.55333 38.8134 4.32 37.6001 4.32H31.8951V1.31H36.9701C39.0701 1.31 40.8201 1.64833 42.2201 2.325C43.6434 2.97833 44.7167 3.91167 45.4401 5.125C46.1634 6.33833 46.5251 7.77333 46.5251 9.43V9.99C46.5251 11.6233 46.1634 13.0583 45.4401 14.295C44.7167 15.5083 43.6434 16.4533 42.2201 17.13C40.8201 17.7833 39.0701 18.11 36.9701 18.11H31.8951ZM29.1651 27V1.31H32.5951V27H29.1651ZM51.5528 27V1.31H54.9828V27H51.5528ZM67.3378 27L58.8678 15.625H62.8928L71.5028 27H67.3378ZM53.6878 17.76V14.715H60.5478C61.6211 14.715 62.5428 14.4933 63.3128 14.05C64.0828 13.6067 64.6778 13 65.0978 12.23C65.5178 11.4367 65.7278 10.5383 65.7278 9.535C65.7278 8.53167 65.5178 7.645 65.0978 6.875C64.6778 6.08167 64.0828 5.46333 63.3128 5.02C62.5428 4.55333 61.6211 4.32 60.5478 4.32H53.6878V1.31H59.9178C61.7844 1.31 63.4178 1.59 64.8178 2.15C66.2178 2.71 67.3028 3.57333 68.0728 4.74C68.8428 5.90667 69.2278 7.41167 69.2278 9.255V9.815C69.2278 11.6583 68.8311 13.1633 68.0378 14.33C67.2678 15.4967 66.1828 16.36 64.7828 16.92C63.4061 17.48 61.7844 17.76 59.9178 17.76H53.6878ZM76.1296 27V1.45H79.5596V27H76.1296ZM87.0655 27V1.45H90.4955V27H87.0655ZM89.7955 27V23.92H101.485V27H89.7955Z" fill="white"/>
</g>
<defs>
<clipPath id="clip0_9_18">
<rect width="103" height="28" fill="white"/>
</clipPath>
</defs>
</svg>
