<svg width="256" height="256" viewBox="0 0 256 256" fill="none" xmlns="http://www.w3.org/2000/svg">
<rect width="256" height="256" fill="#444D56"/>
<path fill-rule="evenodd" clip-rule="evenodd" d="M128 90C115.85 90 106 99.8498 106 112C106 119.558 109.812 126.226 115.617 130.186C102.159 135.116 92.4642 147.852 92.016 162.911C91.9667 164.567 93.2693 165.949 94.9254 165.999C96.5815 166.048 97.9641 164.745 98.0133 163.089C98.4939 146.943 111.736 134 128 134C144.264 134 157.506 146.943 157.986 163.089C158.036 164.745 159.418 166.048 161.074 165.999C162.73 165.949 164.033 164.567 163.984 162.911C163.535 147.852 153.841 135.117 140.383 130.186C146.189 126.226 150 119.558 150 112C150 99.8498 140.15 90 128 90ZM112 112C112 103.163 119.164 96 128 96C136.837 96 144 103.163 144 112C144 120.837 136.837 128 128 128C119.164 128 112 120.837 112 112Z" fill="#D1D5DA"/>
</svg>
