<svg width="110" height="148" viewBox="0 0 110 148" fill="none" xmlns="http://www.w3.org/2000/svg">
<path fill-rule="evenodd" clip-rule="evenodd" d="M87.0833 48.9584H99.9167C105.485 48.9584 110 53.473 110 59.0417V137.417C110 142.985 105.485 147.5 99.9167 147.5H10.0833C4.51458 147.5 0 142.985 0 137.417V59.0417C0 53.473 4.51458 48.9584 10.0833 48.9584H22.9167V32.9167C22.9167 16.875 37.3083 0.833374 55 0.833374C72.6917 0.833374 87.0833 16.875 87.0833 32.9167V48.9584ZM34.375 32.9167V48.9584H75.625V32.9167C75.625 21.55 66.3667 12.2917 55 12.2917C43.6333 12.2917 34.375 21.55 34.375 32.9167ZM55 81.0417C61.325 81.0417 66.4583 86.175 66.4583 92.5C66.4583 96.8771 63.9833 100.635 60.3854 102.56L64.1666 117.708H45.8333L49.6145 102.56C46.0166 100.635 43.5416 96.8771 43.5416 92.5C43.5416 86.175 48.6749 81.0417 55 81.0417Z" fill="white"/>
</svg>
