<svg width="24" height="24" viewBox="0 0 24 24" fill="none" xmlns="http://www.w3.org/2000/svg">
<path fill-rule="evenodd" clip-rule="evenodd" d="M8.45455 7.63636C8.00268 7.63636 7.63636 8.00268 7.63636 8.45455V15.5455C7.63636 15.9973 8.00268 16.3636 8.45455 16.3636H15.5455C15.9973 16.3636 16.3636 15.9973 16.3636 15.5455V8.45455C16.3636 8.00268 15.9973 7.63636 15.5455 7.63636H8.45455ZM9.27273 14.7273V9.27273H14.7273V14.7273H9.27273Z" fill="#24292E"/>
<path fill-rule="evenodd" clip-rule="evenodd" d="M15.5455 0C15.9973 0 16.3636 0.366313 16.3636 0.818182V3.27273H18.8182C19.8725 3.27273 20.7273 4.12746 20.7273 5.18182V7.63636H23.1818C23.6337 7.63636 24 8.00268 24 8.45455C24 8.90641 23.6337 9.27273 23.1818 9.27273H20.7273V14.7273H23.1818C23.6337 14.7273 24 15.0936 24 15.5455C24 15.9973 23.6337 16.3636 23.1818 16.3636H20.7273V18.8182C20.7273 19.8725 19.8725 20.7273 18.8182 20.7273H16.3636V23.1818C16.3636 23.6337 15.9973 24 15.5455 24C15.0936 24 14.7273 23.6337 14.7273 23.1818V20.7273H9.27273V23.1818C9.27273 23.6337 8.90641 24 8.45455 24C8.00268 24 7.63636 23.6337 7.63636 23.1818V20.7273H5.18182C4.12746 20.7273 3.27273 19.8725 3.27273 18.8182V16.3636H0.818182C0.366313 16.3636 0 15.9973 0 15.5455C0 15.0936 0.366313 14.7273 0.818182 14.7273H3.27273V9.27273H0.818182C0.366313 9.27273 0 8.90641 0 8.45455C0 8.00268 0.366313 7.63636 0.818182 7.63636H3.27273V5.18182C3.27273 4.12746 4.12746 3.27273 5.18182 3.27273H7.63636V0.818182C7.63636 0.366313 8.00268 0 8.45455 0C8.90641 0 9.27273 0.366313 9.27273 0.818182V3.27273H14.7273V0.818182C14.7273 0.366313 15.0936 0 15.5455 0ZM18.8182 19.0909C18.9688 19.0909 19.0909 18.9688 19.0909 18.8182V5.18182C19.0909 5.0312 18.9688 4.90909 18.8182 4.90909H5.18182C5.0312 4.90909 4.90909 5.0312 4.90909 5.18182V18.8182C4.90909 18.9688 5.0312 19.0909 5.18182 19.0909H18.8182Z" fill="#24292E"/>
</svg>
