<svg width="101" height="36" viewBox="0 0 101 36" fill="none" xmlns="http://www.w3.org/2000/svg">
<path d="M27.348 6.933C27.3357 6.85637 27.2983 6.786 27.2416 6.73296C27.185 6.67993 27.1123 6.64722 27.035 6.64C26.91 6.62 24.165 6.43 24.165 6.43L22.072 4.337C21.884 4.127 21.466 4.189 21.308 4.233C21.288 4.233 20.89 4.358 20.241 4.569C19.609 2.743 18.491 1.067 16.523 1.067H16.355C15.79 0.337 15.1 0 14.515 0C9.931 0.02 7.745 5.738 7.055 8.66L3.851 9.643C2.868 9.956 2.831 9.979 2.701 10.916L0 31.749L20.248 35.539L31.222 33.173C31.222 33.153 27.369 7.133 27.349 6.935L27.348 6.933ZM19.118 4.921C18.608 5.089 18.018 5.257 17.402 5.446V5.069C17.422 4.127 17.279 3.189 16.984 2.293C18.01 2.451 18.7 3.603 19.118 4.921ZM15.748 2.535C16.083 3.522 16.248 4.562 16.206 5.605V5.793L12.666 6.893C13.359 4.306 14.636 3.027 15.746 2.546L15.748 2.535ZM14.388 1.262C14.598 1.267 14.801 1.332 14.974 1.45C13.497 2.138 11.936 3.874 11.266 7.35L8.466 8.208C9.256 5.57 11.099 1.256 14.386 1.256L14.388 1.262Z" fill="#95BF47"/>
<path d="M27.036 6.63894C26.911 6.61894 24.166 6.42894 24.166 6.42894L22.073 4.33594C21.996 4.25594 21.891 4.21194 21.78 4.21094L20.252 35.5349L31.226 33.1689L27.35 6.95094C27.324 6.79094 27.198 6.66294 27.037 6.63794L27.036 6.63894Z" fill="#5E8E3E"/>
<path d="M16.5224 12.7112L15.1604 16.7312C14.3374 16.3312 13.4364 16.1182 12.5224 16.1012C10.3854 16.1012 10.2824 17.4412 10.2824 17.7772C10.2824 19.6072 15.0774 20.3112 15.0774 24.6252C15.0774 28.0172 12.9204 30.1952 10.0304 30.1952C6.55441 30.1952 4.77441 28.0382 4.77441 28.0382L5.69841 24.9582C5.69841 24.9582 7.51841 26.5282 9.07041 26.5282C9.25592 26.5355 9.44097 26.505 9.61435 26.4387C9.78772 26.3723 9.9458 26.2713 10.079 26.142C10.2121 26.0127 10.3176 25.8576 10.3891 25.6862C10.4605 25.5149 10.4963 25.3308 10.4944 25.1452C10.4944 22.7352 6.55741 22.6312 6.55741 18.6952C6.55741 15.3852 8.94341 12.1602 13.7394 12.1602C15.6244 12.1882 16.5254 12.7102 16.5254 12.7102L16.5224 12.7112Z" fill="white"/>
<path d="M40.7499 18.699C39.9669 18.279 39.5619 17.916 39.5619 17.419C39.5619 16.789 40.1119 16.382 41.0049 16.382C41.6678 16.3964 42.3216 16.5393 42.9299 16.803L43.6519 14.609C43.6519 14.609 42.9899 14.097 41.0499 14.097C38.3439 14.097 36.4639 15.647 36.4639 17.825C36.4639 19.057 37.3359 20.005 38.5079 20.681C39.4549 21.231 39.7879 21.595 39.7879 22.169C39.7879 22.743 39.3219 23.222 38.4349 23.222C37.1279 23.222 35.8949 22.546 35.8949 22.546L35.1289 24.74C35.1289 24.74 36.2719 25.506 38.1809 25.506C40.9609 25.506 42.9609 24.138 42.9609 21.666C42.9759 20.328 41.9679 19.396 40.7609 18.689L40.7499 18.699ZM51.8439 14.084C50.4759 14.084 49.3939 14.731 48.5659 15.73L48.5199 15.715L49.7079 9.499H46.6129L43.6059 25.329H46.7029L47.7399 19.917C48.1459 17.873 49.2029 16.609 50.1899 16.609C50.8799 16.609 51.1519 17.075 51.1519 17.752C51.1519 18.212 51.1059 18.669 51.0169 19.12L49.8449 25.314H52.9419L54.1599 18.914C54.2929 18.251 54.3699 17.578 54.3849 16.904C54.3699 15.16 53.4529 14.108 51.8449 14.108L51.8439 14.084ZM61.3739 14.084C57.6459 14.084 55.1799 17.452 55.1799 21.184C55.1799 23.59 56.6679 25.514 59.4499 25.514C63.1069 25.514 65.5839 22.236 65.5839 18.414C65.5839 16.189 64.2769 14.084 61.3789 14.084H61.3739ZM59.8539 23.149C58.8009 23.149 58.3509 22.249 58.3509 21.139C58.3509 19.365 59.2649 16.464 60.9529 16.464C62.0499 16.464 62.4159 17.411 62.4159 18.329C62.4119 20.234 61.4959 23.149 59.8559 23.149H59.8539ZM73.5039 14.084C71.4039 14.084 70.2259 15.912 70.2259 15.912H70.1799L70.3629 14.266H67.6199L66.9899 18.371L64.8399 29.707H67.9229L68.7809 25.121H68.8409C68.8409 25.121 69.4709 25.527 70.6609 25.527C74.2989 25.527 76.6739 21.799 76.6739 18.031C76.6889 15.956 75.7599 14.093 73.5019 14.093L73.5039 14.084ZM70.5419 23.194C70.0746 23.2033 69.6198 23.0427 69.2619 22.742L69.7739 19.84C70.1399 17.915 71.1419 16.622 72.2239 16.622C73.1709 16.622 73.4559 17.494 73.4559 18.322C73.4609 20.339 72.2759 23.195 70.5459 23.195L70.5419 23.194ZM81.1119 9.634C80.6379 9.631 80.1819 9.819 79.8489 10.156C79.5159 10.493 79.3309 10.95 79.3489 11.424C79.3489 12.338 79.9359 12.974 80.8119 12.974H80.8579C81.0969 12.9835 81.3352 12.9439 81.5583 12.8577C81.7814 12.7715 81.9844 12.6405 82.1549 12.4727C82.3253 12.305 82.4596 12.1041 82.5494 11.8824C82.6392 11.6608 82.6826 11.4231 82.6769 11.184C82.6769 10.284 82.0749 9.634 81.1269 9.634H81.1119ZM76.7859 25.299H79.8829L81.9869 14.329H78.8789L76.7859 25.299ZM89.8789 14.314H87.7159L87.8219 13.802C88.0049 12.749 88.6339 11.802 89.6499 11.802C89.9865 11.8021 90.3213 11.8527 90.6429 11.952L91.2409 9.529C91.2409 9.529 90.6909 9.259 89.5569 9.259C88.4533 9.23156 87.3762 9.59933 86.5199 10.296C85.4669 11.196 84.9699 12.49 84.7199 13.799L84.6199 14.311H83.1769L82.7249 16.641H84.1679L82.5219 25.301H85.6299L87.2759 16.641H89.4119L89.8319 14.311L89.8789 14.314ZM97.3369 14.329L94.5249 21.876H94.4789L93.7129 14.329H90.4489L92.3139 24.401C92.3588 24.5732 92.3373 24.7559 92.2539 24.913C91.8489 25.66 91.2719 26.299 90.5699 26.778C90.0319 27.148 89.4449 27.442 88.8259 27.65L89.6839 30.28C90.8184 29.9763 91.8598 29.396 92.7149 28.591C94.1279 27.267 95.4349 25.223 96.7749 22.441L100.563 14.323H97.3359L97.3369 14.329Z" fill="black"/>
</svg>
