<?xml version="1.0" encoding="UTF-8"?>
<svg id="Layer_2" data-name="Layer 2" xmlns="http://www.w3.org/2000/svg" viewBox="0 0 1017.23 791.59">
  <defs>
    <style>
      .cls-1 {
        fill: #fff;
      }
    </style>
  </defs>
  <g id="Layer_3" data-name="Layer 3">
    <g>
      <path class="cls-1" d="M0,0h91.38v363.2L134.46,0h92.54l-53.55,393.46,53.55,392.31h-92.54l-43.07-362.04v362.04H0V0Z"/>
      <path class="cls-1" d="M495.32,0h146.67l33.76,714.17h3.49L681,0h91.37v785.77h-149.01l-33.75-716.51h-3.5v716.51h-90.8V0Z"/>
      <path class="cls-1" d="M372.69,0v655.39c0,27.94-1.07,46.08-3.2,54.42-2.14,8.35-6.11,12.52-11.93,12.52-5.44,0-9.31-4.16-11.64-12.52-1.45-5.19-2.45-14.2-3-27.02,0-.18-.01-.37-.02-.56-.05-1.09-.09-2.19-.13-3.33-.01-.41-.03-.83-.04-1.25-.03-.96-.06-1.92-.08-2.91-.02-.63-.03-1.28-.04-1.92-.02-.84-.04-1.68-.06-2.55-.01-.78-.02-1.59-.04-2.38-.01-.78-.02-1.54-.03-2.33-.01-.97-.02-1.98-.03-2.98,0-.61-.01-1.2-.01-1.82,0-1.76-.02-3.54-.02-5.38V0h-91.96v668.78c0,46.56,8.14,78.67,24.45,96.32,16.29,17.67,43.84,26.49,82.65,26.49s66.93-8.82,83.24-26.49c14.36-15.55,22.38-42.35,24.09-80.36.03-.58.04-1.19.06-1.78.08-1.96.16-3.92.2-5.95,0-.19,0-.39,0-.58,0-.16,0-.33,0-.49,0-.26,0-.52.01-.78.04-2.07.06-4.18.06-6.38V0h-92.54ZM380.36,712.59c1.52-5.97,3.55-18.39,3.55-57.2V11.22h6.66v644.17c0,28.94-1.13,47.46-3.48,56.64-4.12,16.09-13.93,19.01-19.88,19.22,5.05-2.56,10.39-7.84,13.15-18.66ZM401.25,757.41c17.08-7.9,27.99-22.93,31.89-38.17,3.08-12.03,4.39-31.13,4.39-63.85V38.03h6.66v617.36c0,32.52-1.54,51.39-4.32,63.29-7.03,30.05-36.04,38.26-38.62,38.74ZM336.95,740.87c3.91,4.24,9.84,7.58,17.49,10.04-13.64-2.83-20.94-7.45-24.76-11.6-9-9.74-14.37-36.11-14.37-70.54V38.03h6.66v630.75c0,50.42,10.47,67.21,14.99,72.09ZM321.44,746.93c4.9,5.31,11.88,9.44,20.84,12.38-12.65-2.83-22.17-7.51-28.11-13.94-6.25-6.77-16.74-25.72-16.74-76.59V29.09h6.66v639.68c0,38.28,6.16,66.04,17.35,78.15ZM279.56,20.16h6.66v648.62c0,41.13,6.82,70.24,19.72,84.21,6.14,6.65,14.8,11.7,25.86,15.16-14.71-3.22-25.82-8.79-33.13-16.72-8.71-9.43-19.1-31.43-19.1-82.65V20.16ZM426.31,655.39c0,31.32-1.25,50.15-4.04,61.07-6.31,24.65-22.83,30.82-32.52,32.26,9.6-3.65,20.78-12.13,25.79-31.7,2.84-11.11,4.11-30.12,4.11-61.63V29.09h6.66v626.29ZM408.44,655.39c0,30.13-1.2,48.82-3.76,58.85-5.21,20.36-18.31,24.93-26.12,25.78,9.28-4.02,16.22-12.81,19.39-25.22,2.61-10.22,3.83-29.1,3.83-59.42V20.16h6.66v635.23ZM283.15,757.49c-14.25-15.42-21.47-45.27-21.47-88.71V11.22h6.66v657.56c0,44.03,7.43,74.41,22.08,90.27,7.22,7.82,17.21,13.72,29.89,17.66-16.27-3.67-28.73-10.08-37.16-19.22Z"/>
      <path class="cls-1" d="M924.68,0v655.39c0,27.94-1.07,46.08-3.2,54.42-2.14,8.35-6.11,12.52-11.93,12.52-5.44,0-9.31-4.16-11.64-12.52-1.45-5.19-2.45-14.2-3-27.02,0-.18-.01-.37-.02-.56-.05-1.09-.09-2.19-.13-3.33-.01-.41-.03-.83-.04-1.25-.03-.96-.06-1.92-.08-2.91-.02-.63-.03-1.28-.04-1.92-.02-.84-.04-1.68-.06-2.55-.01-.78-.02-1.59-.04-2.38-.01-.78-.02-1.54-.03-2.33-.01-.97-.02-1.98-.03-2.98,0-.61-.01-1.2-.01-1.82,0-1.76-.02-3.54-.02-5.38V0h-91.96v668.78c0,46.56,8.14,78.67,24.45,96.32,16.29,17.67,43.84,26.49,82.65,26.49s66.93-8.82,83.24-26.49c14.36-15.55,22.38-42.35,24.09-80.36.03-.58.04-1.19.06-1.78.08-1.96.16-3.92.2-5.95,0-.19,0-.39,0-.58,0-.16,0-.33,0-.49,0-.26,0-.52.01-.78.04-2.07.06-4.18.06-6.38V0h-92.54ZM932.35,712.59c1.52-5.97,3.55-18.39,3.55-57.2V11.22h6.66v644.17c0,28.94-1.13,47.46-3.48,56.64-4.12,16.09-13.93,19.01-19.88,19.22,5.05-2.56,10.39-7.84,13.15-18.66ZM953.24,757.41c17.08-7.9,27.99-22.93,31.89-38.17,3.08-12.03,4.39-31.13,4.39-63.85V38.03h6.66v617.36c0,32.52-1.54,51.39-4.32,63.29-7.03,30.05-36.04,38.26-38.62,38.74ZM888.94,740.87c3.91,4.24,9.84,7.58,17.49,10.04-13.64-2.83-20.94-7.45-24.76-11.6-9-9.74-14.37-36.11-14.37-70.54V38.03h6.66v630.75c0,50.42,10.47,67.21,14.99,72.09ZM873.43,746.93c4.9,5.31,11.88,9.44,20.84,12.38-12.65-2.83-22.17-7.51-28.11-13.94-6.25-6.77-16.74-25.72-16.74-76.59V29.09h6.66v639.68c0,38.28,6.16,66.04,17.35,78.15ZM831.55,20.16h6.66v648.62c0,41.13,6.82,70.24,19.72,84.21,6.14,6.65,14.8,11.7,25.86,15.16-14.71-3.22-25.82-8.79-33.13-16.72-8.71-9.43-19.1-31.43-19.1-82.65V20.16ZM978.31,655.39c0,31.32-1.25,50.15-4.04,61.07-6.31,24.65-22.83,30.82-32.52,32.26,9.6-3.65,20.78-12.13,25.79-31.7,2.84-11.11,4.11-30.12,4.11-61.63V29.09h6.66v626.29ZM960.43,655.39c0,30.13-1.2,48.82-3.76,58.85-5.21,20.36-18.31,24.93-26.12,25.78,9.28-4.02,16.22-12.81,19.39-25.22,2.61-10.22,3.83-29.1,3.83-59.42V20.16h6.66v635.23ZM835.14,757.49c-14.25-15.42-21.47-45.27-21.47-88.71V11.22h6.66v657.56c0,44.03,7.43,74.41,22.08,90.27,7.22,7.82,17.21,13.72,29.89,17.66-16.27-3.67-28.73-10.08-37.16-19.22Z"/>
    </g>
  </g>
</svg>